<?xml version="1.0" encoding="utf-8"?>
<!-- Generator: Adobe Illustrator 22.0.2, SVG Export Plug-In . SVG Version: 6.00 Build 0)  -->
<svg version="1.1" xmlns="http://www.w3.org/2000/svg" xmlns:xlink="http://www.w3.org/1999/xlink" x="0px" y="0px"
	 viewBox="0 0 588 672" style="enable-background:new 0 0 588 672;" xml:space="preserve">
<style type="text/css">
	.st0{fill:none;}
	.st1{fill:#231815;}
	.st2{fill-rule:evenodd;clip-rule:evenodd;fill:url(#_x36__dpi_10_x25_);stroke:#231F20;stroke-width:15;stroke-miterlimit:10;}
	.st3{fill:#3D9AE8;}
	.st4{font-family:'Helvetica-Bold';}
	.st5{font-size:65px;}
	.st6{opacity:0.4;fill-rule:evenodd;clip-rule:evenodd;fill:url(#SVGID_1_);}
	.st7{fill-rule:evenodd;clip-rule:evenodd;fill:#2D2424;}
	.st8{fill-rule:evenodd;clip-rule:evenodd;fill:#3D9AE8;}
	.st9{fill-rule:evenodd;clip-rule:evenodd;fill:#2479B2;}
	.st10{fill-rule:evenodd;clip-rule:evenodd;fill:#FFFFFF;}
	.st11{fill-rule:evenodd;clip-rule:evenodd;fill:#0C598E;}
	.st12{fill-rule:evenodd;clip-rule:evenodd;fill:#333333;}
	.st13{fill:none;stroke:#231F20;stroke-width:2;stroke-miterlimit:10;}
</style>
<pattern  x="-1178" y="-3281" width="48" height="48" patternUnits="userSpaceOnUse" id="_x36__dpi_10_x25_" viewBox="1.2 -49.2 48 48" style="overflow:visible;">
	<g>
		<rect x="1.2" y="-49.2" class="st0" width="48" height="48"/>
		<g>
			<circle class="st1" cx="25.2" cy="-1.2" r="1.2"/>
			<circle class="st1" cx="49.2" cy="-1.2" r="1.2"/>
			<circle class="st1" cx="25.2" cy="-25.2" r="1.2"/>
			<circle class="st1" cx="49.2" cy="-25.2" r="1.2"/>
			<circle class="st1" cx="37.2" cy="-13.2" r="1.2"/>
			<circle class="st1" cx="13.2" cy="-13.2" r="1.2"/>
			<circle class="st1" cx="37.2" cy="-37.2" r="1.2"/>
			<circle class="st1" cx="13.2" cy="-37.2" r="1.2"/>
		</g>
		<g>
			<circle class="st1" cx="1.2" cy="-1.2" r="1.2"/>
			
				<ellipse transform="matrix(0.1602 -0.9871 0.9871 0.1602 25.8827 -19.9789)" class="st1" cx="1.2" cy="-25.2" rx="1.2" ry="1.2"/>
		</g>
		<g>
			<circle class="st1" cx="25.2" cy="-49.2" r="1.2"/>
			<circle class="st1" cx="49.2" cy="-49.2" r="1.2"/>
		</g>
		<g>
			
				<ellipse transform="matrix(0.1602 -0.9871 0.9871 0.1602 49.5728 -40.1345)" class="st1" cx="1.2" cy="-49.2" rx="1.2" ry="1.2"/>
		</g>
	</g>
</pattern>
<g id="图层_3">
	<polygon class="st2" points="295.4,658 15.2,497.4 14.2,174.4 293.4,12 573.6,172.6 574.6,495.6 	"/>
</g>
<g id="图层_6">
	<text transform="matrix(1 0 0 1 123.5433 514.2923)"><tspan x="0" y="0" class="st3 st4 st5">Bio</tspan><tspan x="104.7" y="0" class="st4 st5">Installer</tspan></text>
</g>
<g id="图层_2">
	<g>
		
			<radialGradient id="SVGID_1_" cx="-1257.6434" cy="18916.7422" r="120.0287" gradientTransform="matrix(1.7033 0 0 0.1319 2441.1653 -1959.9945)" gradientUnits="userSpaceOnUse">
			<stop  offset="0" style="stop-color:#000000"/>
			<stop  offset="4.301205e-02" style="stop-color:#131313"/>
			<stop  offset="0.1924" style="stop-color:#515151"/>
			<stop  offset="0.3406" style="stop-color:#868686"/>
			<stop  offset="0.484" style="stop-color:#B1B1B1"/>
			<stop  offset="0.6218" style="stop-color:#D3D3D3"/>
			<stop  offset="0.7523" style="stop-color:#EBEBEB"/>
			<stop  offset="0.8726" style="stop-color:#FAFAFA"/>
			<stop  offset="0.9731" style="stop-color:#FFFFFF"/>
		</radialGradient>
		<path class="st6" d="M503.5,535.1c0,8.7-91.5,15.8-204.4,15.8c-112.9,0-204.5-7.1-204.5-15.8c0-8.7,91.5-15.8,204.5-15.8
			C411.9,519.3,503.5,526.4,503.5,535.1z"/>
	</g>
</g>
<g id="Layer_1">
	<path class="st7" d="M418.6,164.4c-66.4-66.4-174.6-66.4-241,0c-66.4,66.4-66.4,174.6,0,241c66.4,66.4,174.6,66.4,241,0
		C485,339,485,230.7,418.6,164.4z"/>
	<path class="st8" d="M303.6,435.7c86.5,0,157-70.6,157-157.1c0-86.5-70.6-157.1-157-157.1c-86.5,0-157.1,70.6-157.1,157.1
		C146.5,365.1,217.1,435.7,303.6,435.7z"/>
	<path class="st9" d="M295.1,147.1c86.7,0,157.1,70.3,157.1,157.1c0,11.6-1.2,22.8-3.6,33.7h0.6c7.4-18.3,11.5-38.2,11.5-59.2
		c0-86.7-70.3-157.1-157-157.1c-74.1,0-136.2,51.3-152.7,120.3C175,186.1,230.5,147.1,295.1,147.1z"/>
	<path class="st10" d="M292.8,261.7c1.6-8.5,8.4-15.2,17-16.6c-8.6-1.5-15.4-8.1-17-16.6c-1.6,8.5-8.4,15.2-17,16.6
		C284.4,246.6,291.2,253.2,292.8,261.7z"/>
	<path class="st11" d="M158.2,219.2c25.6-53.7,80.5-90.9,144-90.9c80.5,0,147,59.6,157.9,137c-6.8-80.5-74.2-143.7-156.5-143.7
		C237.9,121.6,181.6,161.9,158.2,219.2z"/>
	<path class="st10" d="M277.9,232.1c1-5.4,5.4-9.7,10.8-10.6c-5.5-0.9-9.8-5.2-10.8-10.6c-1,5.4-5.4,9.7-10.8,10.6
		C272.5,222.4,276.9,226.7,277.9,232.1z"/>
	<path class="st10" d="M304.4,221.7c0.7-3.8,3.8-6.9,7.7-7.5c-3.9-0.7-7-3.7-7.7-7.5c-0.7,3.8-3.8,6.9-7.7,7.5
		C300.5,214.9,303.6,217.9,304.4,221.7z"/>
	<g>
		<rect x="376.9" y="285.5" class="st8" width="5.2" height="5.2"/>
		<rect x="384.8" y="285.5" class="st8" width="5.2" height="5.2"/>
		<rect x="392.7" y="285.5" class="st8" width="5.2" height="5.2"/>
	</g>
	<g>
		<rect x="376.9" y="294.5" class="st8" width="5.2" height="5.2"/>
		<rect x="384.8" y="294.5" class="st8" width="5.2" height="5.2"/>
		<rect x="392.7" y="294.5" class="st8" width="5.2" height="5.2"/>
	</g>
	<g>
		<rect x="376.9" y="303.5" class="st8" width="5.2" height="5.2"/>
		<rect x="384.8" y="303.5" class="st8" width="5.2" height="5.2"/>
		<rect x="392.7" y="303.5" class="st8" width="5.2" height="5.2"/>
	</g>
	<g>
		<rect x="376.9" y="312.3" class="st8" width="5.2" height="5.2"/>
		<rect x="384.8" y="312.3" class="st8" width="5.2" height="5.2"/>
		<rect x="392.7" y="312.3" class="st8" width="5.2" height="5.2"/>
	</g>
	<g>
		<rect x="232.6" y="287.4" class="st8" width="5.2" height="5.2"/>
		<rect x="240.6" y="287.4" class="st8" width="5.2" height="5.2"/>
		<rect x="248.5" y="287.4" class="st8" width="5.2" height="5.2"/>
	</g>
	<g>
		<rect x="232.6" y="296.4" class="st8" width="5.2" height="5.2"/>
		<rect x="240.6" y="296.4" class="st8" width="5.2" height="5.2"/>
		<rect x="248.5" y="296.4" class="st8" width="5.2" height="5.2"/>
	</g>
	<g>
		<rect x="232.6" y="305.4" class="st8" width="5.2" height="5.2"/>
		<rect x="240.6" y="305.4" class="st8" width="5.2" height="5.2"/>
		<rect x="248.5" y="305.4" class="st8" width="5.2" height="5.2"/>
	</g>
	<g>
		<rect x="232.6" y="314.2" class="st8" width="5.2" height="5.2"/>
		<rect x="240.6" y="314.2" class="st8" width="5.2" height="5.2"/>
		<rect x="248.5" y="314.2" class="st8" width="5.2" height="5.2"/>
	</g>
	<g>
		<rect x="335.4" y="244.6" class="st8" width="5.2" height="5.2"/>
		<rect x="343.3" y="244.6" class="st8" width="5.2" height="5.2"/>
		<rect x="351.2" y="244.6" class="st8" width="5.2" height="5.2"/>
	</g>
	<g>
		<rect x="335.4" y="253.6" class="st8" width="5.2" height="5.2"/>
		<rect x="343.3" y="253.6" class="st8" width="5.2" height="5.2"/>
		<rect x="351.2" y="253.6" class="st8" width="5.2" height="5.2"/>
	</g>
	<g>
		<rect x="335.4" y="262.6" class="st8" width="5.2" height="5.2"/>
		<rect x="343.3" y="262.6" class="st8" width="5.2" height="5.2"/>
		<rect x="351.2" y="262.6" class="st8" width="5.2" height="5.2"/>
	</g>
	<g>
		<rect x="335.4" y="271.5" class="st8" width="5.2" height="5.2"/>
		<rect x="343.3" y="271.5" class="st8" width="5.2" height="5.2"/>
		<rect x="351.2" y="271.5" class="st8" width="5.2" height="5.2"/>
	</g>
	<path class="st12" d="M262,316.3h63.3v5.3c0,2.9-2.4,5.3-5.3,5.3h-52.8c-2.9,0-5.3-2.4-5.3-5.3V316.3z"/>
	<path class="st12" d="M288.7,325.7h10.1v8.7c0,1.4-1.1,2.5-2.5,2.5h-5.1c-1.4,0-2.5-1.1-2.5-2.5V325.7z"/>
	<rect x="291.4" y="325.7" class="st12" width="4.7" height="125.8"/>
</g>
<g id="图层_4">
</g>
<g id="图层_5">
	<path class="st13" d="M261.4,160.8c62.9-7.9,120.3,36.8,128.2,99.7c6.3,50.4-29.4,96.3-79.8,102.6c-40.3,5-77-23.5-82-63.8
		c-4-32.2,18.8-61.6,51.1-65.6c25.8-3.2,49.3,15.1,52.5,40.9c2.6,20.6-12.1,39.4-32.7,42c-16.5,2.1-31.5-9.6-33.6-26.1
		c-1.6-13.2,7.7-25.2,20.9-26.9c10.6-1.3,20.2,6.2,21.5,16.7c1.1,8.4-4.9,16.2-13.4,17.2"/>
</g>
</svg>
